<svg xmlns="http://www.w3.org/2000/svg" xmlns:xlink="http://www.w3.org/1999/xlink"  zoomAndPan="magnify" viewBox="0 0 1440 809.999993"  preserveAspectRatio="xMidYMid meet" version="1.0"><path fill="#ffed00" d="M 498.054688 342.75 L 941.945312 342.75 C 959.03125 342.75 972.882812 356.621094 972.882812 373.730469 L 972.882812 435.695312 C 972.882812 452.804688 959.03125 466.675781 941.945312 466.675781 L 498.054688 466.675781 C 480.96875 466.675781 467.117188 452.804688 467.117188 435.695312 L 467.117188 373.730469 C 467.117188 356.621094 480.96875 342.75 498.054688 342.75 " fill-opacity="1" fill-rule="nonzero"/><g fill="#000000" fill-opacity="1"><g transform="translate(497.695294, 435.463356)"><g><path d="M 1.546875 0 C 1.234375 0 0.988281 -0.101562 0.8125 -0.3125 C 0.632812 -0.519531 0.570312 -0.800781 0.625 -1.15625 L 6.953125 -52.953125 C 7.003906 -53.316406 7.144531 -53.601562 7.375 -53.8125 C 7.613281 -54.019531 7.882812 -54.125 8.1875 -54.125 L 22.96875 -54.125 C 27.550781 -54.125 31.191406 -52.921875 33.890625 -50.515625 C 36.597656 -48.117188 37.953125 -44.910156 37.953125 -40.890625 C 37.953125 -40.429688 37.90625 -39.6875 37.8125 -38.65625 L 34.9375 -15.46875 C 34.582031 -12.425781 33.566406 -9.726562 31.890625 -7.375 C 30.210938 -5.03125 28.019531 -3.210938 25.3125 -1.921875 C 22.613281 -0.640625 19.613281 0 16.3125 0 Z M 16.15625 -12.828125 C 16.050781 -12.578125 16.15625 -12.453125 16.46875 -12.453125 L 17.546875 -12.53125 C 18.367188 -12.582031 19.101562 -12.96875 19.75 -13.6875 C 20.394531 -14.40625 20.820312 -15.332031 21.03125 -16.46875 L 23.578125 -37.734375 L 23.65625 -38.578125 C 23.65625 -39.554688 23.421875 -40.316406 22.953125 -40.859375 C 22.492188 -41.398438 21.878906 -41.671875 21.109375 -41.671875 L 20.03125 -41.671875 C 19.769531 -41.671875 19.640625 -41.539062 19.640625 -41.28125 Z M 16.15625 -12.828125 "/></g></g></g><g fill="#000000" fill-opacity="1"><g transform="translate(533.953024, 435.463356)"><g><path d="M 24.046875 0 C 23.328125 0 22.992188 -0.359375 23.046875 -1.078125 L 22.890625 -6.953125 C 22.941406 -7.054688 22.914062 -7.144531 22.8125 -7.21875 C 22.707031 -7.300781 22.601562 -7.34375 22.5 -7.34375 L 15.765625 -7.34375 C 15.515625 -7.34375 15.335938 -7.210938 15.234375 -6.953125 L 13.765625 -1.078125 C 13.609375 -0.359375 13.171875 0 12.453125 0 L 0.703125 0 C -0.078125 0 -0.363281 -0.410156 -0.15625 -1.234375 L 16.859375 -53.109375 C 17.054688 -53.785156 17.519531 -54.125 18.25 -54.125 L 31.9375 -54.125 C 32.65625 -54.125 33.039062 -53.785156 33.09375 -53.109375 L 37.34375 -1.234375 L 37.34375 -1.078125 C 37.34375 -0.359375 36.957031 0 36.1875 0 Z M 18.40625 -18.859375 C 18.300781 -18.609375 18.375 -18.484375 18.625 -18.484375 L 22.265625 -18.484375 C 22.421875 -18.484375 22.550781 -18.609375 22.65625 -18.859375 L 22.34375 -33.171875 C 22.34375 -33.367188 22.273438 -33.457031 22.140625 -33.4375 C 22.015625 -33.414062 21.953125 -33.328125 21.953125 -33.171875 Z M 18.40625 -18.859375 "/></g></g></g><g fill="#000000" fill-opacity="1"><g transform="translate(573.766949, 435.463356)"><g><path d="M 11.359375 0 C 10.640625 0 10.28125 -0.332031 10.28125 -1 L 6.109375 -52.875 C 6.109375 -53.707031 6.519531 -54.125 7.34375 -54.125 L 20.25 -54.125 C 20.976562 -54.125 21.316406 -53.757812 21.265625 -53.03125 L 21.265625 -25.28125 C 21.210938 -25.125 21.257812 -25.046875 21.40625 -25.046875 C 21.5625 -25.046875 21.664062 -25.125 21.71875 -25.28125 L 28.21875 -53.03125 C 28.375 -53.757812 28.8125 -54.125 29.53125 -54.125 L 42.0625 -54.125 C 42.414062 -54.125 42.679688 -54.019531 42.859375 -53.8125 C 43.046875 -53.601562 43.0625 -53.289062 42.90625 -52.875 L 25.90625 -1 C 25.695312 -0.332031 25.234375 0 24.515625 0 Z M 11.359375 0 "/></g></g></g><g fill="#000000" fill-opacity="1"><g transform="translate(612.807791, 435.463356)"><g><path d="M 1.546875 0 C 1.234375 0 0.988281 -0.101562 0.8125 -0.3125 C 0.632812 -0.519531 0.570312 -0.800781 0.625 -1.15625 L 6.953125 -52.953125 C 7.003906 -53.316406 7.144531 -53.601562 7.375 -53.8125 C 7.613281 -54.019531 7.882812 -54.125 8.1875 -54.125 L 20.09375 -54.125 C 20.40625 -54.125 20.648438 -54.019531 20.828125 -53.8125 C 21.015625 -53.601562 21.082031 -53.316406 21.03125 -52.953125 L 14.6875 -1.15625 C 14.632812 -0.800781 14.492188 -0.519531 14.265625 -0.3125 C 14.035156 -0.101562 13.765625 0 13.453125 0 Z M 1.546875 0 "/></g></g></g><g fill="#000000" fill-opacity="1"><g transform="translate(630.820688, 435.463356)"><g><path d="M 1.546875 0 C 1.234375 0 0.988281 -0.101562 0.8125 -0.3125 C 0.632812 -0.519531 0.570312 -0.800781 0.625 -1.15625 L 6.953125 -52.953125 C 7.003906 -53.316406 7.144531 -53.601562 7.375 -53.8125 C 7.613281 -54.019531 7.882812 -54.125 8.1875 -54.125 L 22.96875 -54.125 C 27.550781 -54.125 31.191406 -52.921875 33.890625 -50.515625 C 36.597656 -48.117188 37.953125 -44.910156 37.953125 -40.890625 C 37.953125 -40.429688 37.90625 -39.6875 37.8125 -38.65625 L 34.9375 -15.46875 C 34.582031 -12.425781 33.566406 -9.726562 31.890625 -7.375 C 30.210938 -5.03125 28.019531 -3.210938 25.3125 -1.921875 C 22.613281 -0.640625 19.613281 0 16.3125 0 Z M 16.15625 -12.828125 C 16.050781 -12.578125 16.15625 -12.453125 16.46875 -12.453125 L 17.546875 -12.53125 C 18.367188 -12.582031 19.101562 -12.96875 19.75 -13.6875 C 20.394531 -14.40625 20.820312 -15.332031 21.03125 -16.46875 L 23.578125 -37.734375 L 23.65625 -38.578125 C 23.65625 -39.554688 23.421875 -40.316406 22.953125 -40.859375 C 22.492188 -41.398438 21.878906 -41.671875 21.109375 -41.671875 L 20.03125 -41.671875 C 19.769531 -41.671875 19.640625 -41.539062 19.640625 -41.28125 Z M 16.15625 -12.828125 "/></g></g></g><g fill="#008037" fill-opacity="1"><g transform="translate(667.078098, 435.463356)"><g><path d="M 1.546875 0 C 1.234375 0 0.988281 -0.101562 0.8125 -0.3125 C 0.632812 -0.519531 0.570312 -0.800781 0.625 -1.15625 L 6.953125 -52.953125 C 7.003906 -53.316406 7.144531 -53.601562 7.375 -53.8125 C 7.613281 -54.019531 7.882812 -54.125 8.1875 -54.125 L 20.09375 -54.125 C 20.40625 -54.125 20.648438 -54.019531 20.828125 -53.8125 C 21.015625 -53.601562 21.082031 -53.316406 21.03125 -52.953125 L 16.15625 -12.828125 C 16.050781 -12.578125 16.15625 -12.453125 16.46875 -12.453125 L 31.15625 -12.453125 C 31.519531 -12.453125 31.789062 -12.347656 31.96875 -12.140625 C 32.144531 -11.929688 32.207031 -11.644531 32.15625 -11.28125 L 30.921875 -1.15625 C 30.765625 -0.382812 30.328125 0 29.609375 0 Z M 1.546875 0 "/></g></g></g><g fill="#008037" fill-opacity="1"><g transform="translate(700.552717, 435.463356)"><g><path d="M 1.546875 0 C 1.234375 0 0.988281 -0.101562 0.8125 -0.3125 C 0.632812 -0.519531 0.570312 -0.800781 0.625 -1.15625 L 6.953125 -52.953125 C 7.003906 -53.316406 7.144531 -53.601562 7.375 -53.8125 C 7.613281 -54.019531 7.882812 -54.125 8.1875 -54.125 L 20.09375 -54.125 C 20.40625 -54.125 20.648438 -54.019531 20.828125 -53.8125 C 21.015625 -53.601562 21.082031 -53.316406 21.03125 -52.953125 L 14.6875 -1.15625 C 14.632812 -0.800781 14.492188 -0.519531 14.265625 -0.3125 C 14.035156 -0.101562 13.765625 0 13.453125 0 Z M 1.546875 0 "/></g></g></g><g fill="#008037" fill-opacity="1"><g transform="translate(718.565614, 435.463356)"><g><path d="M 31.78125 -53.265625 C 32.082031 -53.835938 32.546875 -54.125 33.171875 -54.125 L 44.921875 -54.125 C 45.222656 -54.125 45.460938 -54.019531 45.640625 -53.8125 C 45.828125 -53.601562 45.894531 -53.316406 45.84375 -52.953125 L 39.5 -1.15625 C 39.445312 -0.800781 39.304688 -0.519531 39.078125 -0.3125 C 38.847656 -0.101562 38.578125 0 38.265625 0 L 26.359375 0 C 26.054688 0 25.8125 -0.101562 25.625 -0.3125 C 25.445312 -0.519531 25.382812 -0.800781 25.4375 -1.15625 L 29.296875 -32.78125 C 29.347656 -32.988281 29.304688 -33.101562 29.171875 -33.125 C 29.046875 -33.15625 28.9375 -33.09375 28.84375 -32.9375 L 23.578125 -25.359375 L 22.65625 -23.96875 L 22.578125 -23.96875 L 18.625 -32.9375 C 18.582031 -33.09375 18.507812 -33.15625 18.40625 -33.125 C 18.300781 -33.101562 18.222656 -32.988281 18.171875 -32.78125 L 14.296875 -1.15625 C 14.242188 -0.800781 14.113281 -0.519531 13.90625 -0.3125 C 13.707031 -0.101562 13.425781 0 13.0625 0 L 1.234375 0 C 0.878906 0 0.609375 -0.101562 0.421875 -0.3125 C 0.242188 -0.519531 0.179688 -0.800781 0.234375 -1.15625 L 6.578125 -52.953125 C 6.628906 -53.316406 6.769531 -53.601562 7 -53.8125 C 7.226562 -54.019531 7.5 -54.125 7.8125 -54.125 L 19.5625 -54.125 C 20.175781 -54.125 20.585938 -53.835938 20.796875 -53.265625 L 24.890625 -43.21875 C 24.992188 -43.007812 25.148438 -43.007812 25.359375 -43.21875 Z M 31.78125 -53.265625 "/></g></g></g><g fill="#008037" fill-opacity="1"><g transform="translate(761.008029, 435.463356)"><g><path d="M 16.546875 0.625 C 11.953125 0.625 8.34375 -0.625 5.71875 -3.125 C 3.09375 -5.625 1.78125 -9.015625 1.78125 -13.296875 C 1.78125 -13.816406 1.832031 -14.691406 1.9375 -15.921875 L 4.71875 -38.1875 C 5.332031 -43.238281 7.328125 -47.257812 10.703125 -50.25 C 14.078125 -53.238281 18.289062 -54.734375 23.34375 -54.734375 C 27.882812 -54.734375 31.476562 -53.484375 34.125 -50.984375 C 36.78125 -48.484375 38.109375 -45.097656 38.109375 -40.828125 C 38.109375 -40.304688 38.054688 -39.425781 37.953125 -38.1875 L 35.25 -15.921875 C 34.632812 -10.867188 32.625 -6.847656 29.21875 -3.859375 C 25.820312 -0.867188 21.597656 0.625 16.546875 0.625 Z M 18.09375 -11.828125 C 18.863281 -11.828125 19.519531 -12.132812 20.0625 -12.75 C 20.601562 -13.375 20.953125 -14.226562 21.109375 -15.3125 L 23.96875 -38.8125 C 24.070312 -39.894531 23.941406 -40.742188 23.578125 -41.359375 C 23.222656 -41.984375 22.65625 -42.296875 21.875 -42.296875 C 21.050781 -42.296875 20.367188 -41.984375 19.828125 -41.359375 C 19.285156 -40.742188 18.960938 -39.894531 18.859375 -38.8125 L 16 -15.3125 C 15.945312 -15.101562 15.921875 -14.816406 15.921875 -14.453125 C 15.921875 -13.628906 16.113281 -12.984375 16.5 -12.515625 C 16.894531 -12.054688 17.425781 -11.828125 18.09375 -11.828125 Z M 18.09375 -11.828125 "/></g></g></g><g fill="#008037" fill-opacity="1"><g transform="translate(797.26576, 435.463356)"><g><path d="M 28.6875 -52.953125 C 28.738281 -53.316406 28.878906 -53.601562 29.109375 -53.8125 C 29.335938 -54.019531 29.632812 -54.125 30 -54.125 L 41.671875 -54.125 C 42.035156 -54.125 42.304688 -54.019531 42.484375 -53.8125 C 42.660156 -53.601562 42.722656 -53.316406 42.671875 -52.953125 L 36.265625 -1.15625 C 36.210938 -0.800781 36.082031 -0.519531 35.875 -0.3125 C 35.664062 -0.101562 35.378906 0 35.015625 0 L 21.640625 0 C 21.023438 0 20.664062 -0.332031 20.5625 -1 L 17.625 -24.734375 C 17.625 -24.890625 17.570312 -24.96875 17.46875 -24.96875 C 17.363281 -24.96875 17.3125 -24.890625 17.3125 -24.734375 L 14.53125 -1.15625 C 14.476562 -0.800781 14.335938 -0.519531 14.109375 -0.3125 C 13.878906 -0.101562 13.609375 0 13.296875 0 L 1.546875 0 C 1.234375 0 0.988281 -0.101562 0.8125 -0.3125 C 0.632812 -0.519531 0.570312 -0.800781 0.625 -1.15625 L 6.953125 -52.953125 C 7.003906 -53.316406 7.144531 -53.601562 7.375 -53.8125 C 7.613281 -54.019531 7.882812 -54.125 8.1875 -54.125 L 21.421875 -54.125 C 22.035156 -54.125 22.394531 -53.785156 22.5 -53.109375 L 25.515625 -29.21875 C 25.515625 -29.0625 25.566406 -29.007812 25.671875 -29.0625 C 25.773438 -29.113281 25.851562 -29.191406 25.90625 -29.296875 Z M 28.6875 -52.953125 "/></g></g></g><g fill="#000000" fill-opacity="1"><g transform="translate(836.847624, 435.463356)"><g><path d="M 16.3125 0.625 C 11.832031 0.625 8.289062 -0.609375 5.6875 -3.078125 C 3.082031 -5.554688 1.78125 -8.9375 1.78125 -13.21875 C 1.78125 -13.738281 1.832031 -14.613281 1.9375 -15.84375 L 4.71875 -38.421875 C 5.332031 -43.421875 7.3125 -47.390625 10.65625 -50.328125 C 14.007812 -53.265625 18.160156 -54.734375 23.109375 -54.734375 C 27.597656 -54.734375 31.15625 -53.507812 33.78125 -51.0625 C 36.414062 -48.613281 37.734375 -45.25 37.734375 -40.96875 C 37.734375 -40.507812 37.679688 -39.660156 37.578125 -38.421875 L 37.5 -38.03125 C 37.445312 -37.675781 37.300781 -37.378906 37.0625 -37.140625 C 36.832031 -36.910156 36.566406 -36.796875 36.265625 -36.796875 L 24.359375 -36.421875 C 23.578125 -36.421875 23.238281 -36.78125 23.34375 -37.5 L 23.578125 -39.421875 C 23.679688 -40.304688 23.550781 -41.003906 23.1875 -41.515625 C 22.832031 -42.035156 22.316406 -42.296875 21.640625 -42.296875 C 20.921875 -42.296875 20.316406 -42.035156 19.828125 -41.515625 C 19.335938 -41.003906 19.039062 -40.304688 18.9375 -39.421875 L 15.921875 -14.609375 C 15.816406 -13.785156 15.929688 -13.113281 16.265625 -12.59375 C 16.609375 -12.082031 17.140625 -11.828125 17.859375 -11.828125 C 18.578125 -11.828125 19.179688 -12.070312 19.671875 -12.5625 C 20.160156 -13.050781 20.457031 -13.734375 20.5625 -14.609375 L 20.796875 -16.703125 C 20.847656 -17.054688 20.988281 -17.320312 21.21875 -17.5 C 21.445312 -17.6875 21.71875 -17.78125 22.03125 -17.78125 L 33.859375 -17.390625 C 34.222656 -17.390625 34.492188 -17.273438 34.671875 -17.046875 C 34.847656 -16.816406 34.914062 -16.519531 34.875 -16.15625 L 34.796875 -15.84375 C 34.171875 -10.84375 32.171875 -6.847656 28.796875 -3.859375 C 25.421875 -0.867188 21.257812 0.625 16.3125 0.625 Z M 16.3125 0.625 "/></g></g></g><g fill="#000000" fill-opacity="1"><g transform="translate(872.564198, 435.463356)"><g><path d="M 25.4375 -52.953125 C 25.488281 -53.316406 25.613281 -53.601562 25.8125 -53.8125 C 26.019531 -54.019531 26.304688 -54.125 26.671875 -54.125 L 38.5 -54.125 C 38.863281 -54.125 39.132812 -54.019531 39.3125 -53.8125 C 39.488281 -53.601562 39.550781 -53.316406 39.5 -52.953125 L 33.171875 -1.15625 C 33.117188 -0.800781 32.972656 -0.519531 32.734375 -0.3125 C 32.503906 -0.101562 32.210938 0 31.859375 0 L 20.03125 0 C 19.664062 0 19.390625 -0.101562 19.203125 -0.3125 C 19.023438 -0.519531 18.960938 -0.800781 19.015625 -1.15625 L 21.421875 -20.484375 C 21.421875 -20.742188 21.316406 -20.875 21.109375 -20.875 L 17.46875 -20.875 C 17.21875 -20.875 17.09375 -20.742188 17.09375 -20.484375 L 14.6875 -1.15625 C 14.632812 -0.800781 14.492188 -0.519531 14.265625 -0.3125 C 14.035156 -0.101562 13.765625 0 13.453125 0 L 1.546875 0 C 1.234375 0 0.988281 -0.101562 0.8125 -0.3125 C 0.632812 -0.519531 0.570312 -0.800781 0.625 -1.15625 L 6.953125 -52.953125 C 7.003906 -53.316406 7.144531 -53.601562 7.375 -53.8125 C 7.613281 -54.019531 7.882812 -54.125 8.1875 -54.125 L 20.09375 -54.125 C 20.40625 -54.125 20.648438 -54.019531 20.828125 -53.8125 C 21.015625 -53.601562 21.082031 -53.316406 21.03125 -52.953125 L 18.703125 -33.703125 C 18.609375 -33.453125 18.710938 -33.328125 19.015625 -33.328125 L 22.65625 -33.328125 C 22.757812 -33.328125 22.847656 -33.363281 22.921875 -33.4375 C 23.003906 -33.507812 23.046875 -33.597656 23.046875 -33.703125 Z M 25.4375 -52.953125 "/></g></g></g><g fill="#000000" fill-opacity="1"><g transform="translate(908.97655, 435.463356)"><g><path d="M 35.71875 -42.828125 C 35.664062 -42.472656 35.519531 -42.191406 35.28125 -41.984375 C 35.050781 -41.773438 34.757812 -41.671875 34.40625 -41.671875 L 20.03125 -41.671875 C 19.769531 -41.671875 19.640625 -41.539062 19.640625 -41.28125 L 18.703125 -33.703125 C 18.609375 -33.453125 18.710938 -33.328125 19.015625 -33.328125 L 26.515625 -33.328125 C 26.878906 -33.328125 27.148438 -33.222656 27.328125 -33.015625 C 27.503906 -32.804688 27.566406 -32.519531 27.515625 -32.15625 L 26.28125 -22.03125 C 26.125 -21.257812 25.6875 -20.875 24.96875 -20.875 L 17.46875 -20.875 C 17.21875 -20.875 17.09375 -20.742188 17.09375 -20.484375 L 16.15625 -12.828125 C 16.050781 -12.578125 16.15625 -12.453125 16.46875 -12.453125 L 30.84375 -12.453125 C 31.207031 -12.453125 31.476562 -12.347656 31.65625 -12.140625 C 31.84375 -11.929688 31.910156 -11.644531 31.859375 -11.28125 L 30.609375 -1.15625 C 30.554688 -0.800781 30.414062 -0.519531 30.1875 -0.3125 C 29.957031 -0.101562 29.660156 0 29.296875 0 L 1.546875 0 C 1.234375 0 0.988281 -0.101562 0.8125 -0.3125 C 0.632812 -0.519531 0.570312 -0.800781 0.625 -1.15625 L 6.953125 -52.953125 C 7.003906 -53.316406 7.144531 -53.601562 7.375 -53.8125 C 7.613281 -54.019531 7.882812 -54.125 8.1875 -54.125 L 35.953125 -54.125 C 36.304688 -54.125 36.570312 -54.019531 36.75 -53.8125 C 36.9375 -53.601562 37.003906 -53.316406 36.953125 -52.953125 Z M 35.71875 -42.828125 "/></g></g></g></svg>